<svg width="24" height="24" viewBox="0 0 24 24" fill="none" xmlns="http://www.w3.org/2000/svg">
<path d="M0 5C0 3.89543 0.895431 3 2 3H22C23.1046 3 24 3.89543 24 5V19C24 20.1046 23.1046 21 22 21H2C0.89543 21 0 20.1046 0 19V5Z" fill="#00249F"/>
<mask id="mask0_51_301" style="mask-type:alpha" maskUnits="userSpaceOnUse" x="0" y="3" width="24" height="18">
<path d="M0 5C0 3.89543 0.895431 3 2 3H22C23.1046 3 24 3.89543 24 5V19C24 20.1046 23.1046 21 22 21H2C0.89543 21 0 20.1046 0 19V5Z" fill="#FF00C7"/>
</mask>
<g mask="url(#mask0_51_301)">
<path fill-rule="evenodd" clip-rule="evenodd" d="M7 3H5V7H0V9H5V13H7V9H12V7H7V3Z" fill="#C74634"/>
<path fill-rule="evenodd" clip-rule="evenodd" d="M4 3H5V6V7H4H0V6H1V5H2V6H3V5H4V3ZM2 4H3V5H2V4ZM1 4V3H2V4H1ZM1 4H0V5H1V4Z" fill="white"/>
<path fill-rule="evenodd" clip-rule="evenodd" d="M2 4H1V5H2V6H3V5H2V4Z" fill="#C74634"/>
<path opacity="0.5" d="M0 3H1V4H0V3Z" fill="#C74634"/>
<path fill-rule="evenodd" clip-rule="evenodd" d="M8 3H7V6V7H8H12V6H11V5H10V6H9V5H8V3ZM10 4H9V5H10V4ZM11 4V3H10V4H11ZM11 4H12V5H11V4Z" fill="white"/>
<path fill-rule="evenodd" clip-rule="evenodd" d="M12 3H11V4H12V3ZM10 5V4H11V5H10ZM10 5V6H9V5H10Z" fill="#C74634"/>
<path fill-rule="evenodd" clip-rule="evenodd" d="M4 13H5V10V9H4H0V10H1V11H2V10H3V11H4V13ZM2 12H3V11H2V12ZM1 12V13H2V12H1ZM1 12H0V11H1V12Z" fill="white"/>
<path fill-rule="evenodd" clip-rule="evenodd" d="M0 13H1V12H0V13ZM2 11V12H1V11H2ZM2 11V10H3V11H2Z" fill="#C74634"/>
<path fill-rule="evenodd" clip-rule="evenodd" d="M8 13H7V10V9H8H12V10H11V11H10V10H9V11H8V13ZM10 12H9V11H10V12ZM11 12V13H10V12H11ZM11 12H12V11H11V12Z" fill="white"/>
<path fill-rule="evenodd" clip-rule="evenodd" d="M12 13H11V12H12V13ZM10 11V12H11V11H10ZM10 11V10H9V11H10Z" fill="#C74634"/>
<path fill-rule="evenodd" clip-rule="evenodd" d="M5.99965 18.2019L4.2363 19.4271L4.85654 17.3714L3.14648 16.0729L5.29317 16.0276L5.99965 14L6.70614 16.0276L8.85282 16.0729L7.14277 17.3714L7.76301 19.4271L5.99965 18.2019Z" fill="white"/>
<path fill-rule="evenodd" clip-rule="evenodd" d="M16.8242 8.61803L17.9998 7.80129L19.1753 8.61803L18.7618 7.24761L19.9019 6.38197L18.4708 6.35174L17.9998 5L17.5288 6.35174L16.0977 6.38197L17.2377 7.24761L16.8242 8.61803ZM19.9998 12H20.9998V13H19.9998V12ZM17.9998 17.8013L16.8242 18.618L17.2377 17.2476L16.0977 16.382L17.5288 16.3517L17.9998 15L18.4708 16.3517L19.9019 16.382L18.7618 17.2476L19.1753 18.618L17.9998 17.8013ZM14.9998 10.8013L13.8242 11.618L14.2377 10.2476L13.0977 9.38197L14.5288 9.35174L14.9998 8L15.4708 9.35174L16.9019 9.38197L15.7618 10.2476L16.1753 11.618L14.9998 10.8013ZM19.8242 11.618L20.9998 10.8013L22.1753 11.618L21.7618 10.2476L22.9019 9.38197L21.4708 9.35174L20.9998 8L20.5288 9.35174L19.0977 9.38197L20.2377 10.2476L19.8242 11.618Z" fill="white"/>
<path opacity="0.1" fill-rule="evenodd" clip-rule="evenodd" d="M22 4H2C1.44772 4 1 4.44772 1 5V19C1 19.5523 1.44772 20 2 20H22C22.5523 20 23 19.5523 23 19V5C23 4.44771 22.5523 4 22 4ZM2 3C0.895431 3 0 3.89543 0 5V19C0 20.1046 0.89543 21 2 21H22C23.1046 21 24 20.1046 24 19V5C24 3.89543 23.1046 3 22 3H2Z" fill="#100F0E"/>
</g>
</svg>
