<svg width="24" height="24" viewBox="0 0 24 24" fill="none" xmlns="http://www.w3.org/2000/svg">
<path d="M0 5C0 3.89543 0.895431 3 2 3H22C23.1046 3 24 3.89543 24 5V19C24 20.1046 23.1046 21 22 21H2C0.89543 21 0 20.1046 0 19V5Z" fill="#008100"/>
<path fill-rule="evenodd" clip-rule="evenodd" d="M2.20943 12.3065C1.9273 12.1372 1.9331 11.8593 2.20943 11.6935L11.4892 6.12566C11.7713 5.95638 12.2345 5.95986 12.5108 6.12566L21.7906 11.6935C22.0727 11.8628 22.0669 12.1407 21.7906 12.3065L12.5108 17.8743C12.2287 18.0436 11.7655 18.0401 11.4892 17.8743L2.20943 12.3065Z" fill="#FFCE00"/>
<path d="M11.748 15.6611C13.9572 15.6611 15.748 13.8703 15.748 11.6611C15.748 9.45199 13.9572 7.66113 11.748 7.66113C9.53891 7.66113 7.74805 9.45199 7.74805 11.6611C7.74805 13.8703 9.53891 15.6611 11.748 15.6611Z" fill="#0A5DA7"/>
<mask id="mask0_51_462" style="mask-type:alpha" maskUnits="userSpaceOnUse" x="7" y="7" width="9" height="9">
<path d="M11.748 15.6611C13.9572 15.6611 15.748 13.8703 15.748 11.6611C15.748 9.45199 13.9572 7.66113 11.748 7.66113C9.53891 7.66113 7.74805 9.45199 7.74805 11.6611C7.74805 13.8703 9.53891 15.6611 11.748 15.6611Z" fill="#0A5DA7"/>
</mask>
<g mask="url(#mask0_51_462)">
<path d="M7.86818 11.0899C8.12753 10.8024 9.29837 11.0364 11.3237 11.7759C12.7649 12.302 14.4256 13.4638 14.8057 14.106L15.1133 14.626L15.873 13.7839L15.5654 13.264C15.0277 12.3551 13.1984 11.0754 11.5757 10.483C9.04755 9.55997 7.90167 9.331 7.25293 10.05L6.87305 10.4711L7.4883 11.5109L7.86818 11.0899Z" fill="white"/>
</g>
<path opacity="0.1" fill-rule="evenodd" clip-rule="evenodd" d="M22 4H2C1.44772 4 1 4.44772 1 5V19C1 19.5523 1.44772 20 2 20H22C22.5523 20 23 19.5523 23 19V5C23 4.44771 22.5523 4 22 4ZM2 3C0.895431 3 0 3.89543 0 5V19C0 20.1046 0.89543 21 2 21H22C23.1046 21 24 20.1046 24 19V5C24 3.89543 23.1046 3 22 3H2Z" fill="#100F0E"/>
</svg>
