<svg width="24" height="24" viewBox="0 0 24 24" fill="none" xmlns="http://www.w3.org/2000/svg">
<path d="M0 5C0 3.89543 0.895431 3 2 3H22C23.1046 3 24 3.89543 24 5V19C24 20.1046 23.1046 21 22 21H2C0.89543 21 0 20.1046 0 19V5Z" fill="white"/>
<mask id="mask0_51_500" style="mask-type:luminance" maskUnits="userSpaceOnUse" x="0" y="3" width="24" height="18">
<path d="M0 5C0 3.89543 0.895431 3 2 3H22C23.1046 3 24 3.89543 24 5V19C24 20.1046 23.1046 21 22 21H2C0.89543 21 0 20.1046 0 19V5Z" fill="white"/>
</mask>
<g mask="url(#mask0_51_500)">
<path d="M18 3H24V21H18V3Z" fill="#FF0726"/>
<path fill-rule="evenodd" clip-rule="evenodd" d="M0 21H6V3H0V21Z" fill="#FF0726"/>
<path fill-rule="evenodd" clip-rule="evenodd" d="M14.207 11.2215C13.9738 11.4547 13.5798 11.2439 13.6445 10.9205L14.1429 8.42857L12.7143 9.14286L12 7L11.2857 9.14286L9.85714 8.42857L10.3555 10.9205C10.4202 11.2439 10.0262 11.4547 9.79296 11.2215L9.37856 10.8071C9.24838 10.677 9.03733 10.677 8.90715 10.8071L8.42857 11.2857L7 10.5714L7.71429 12L7.2357 12.4786C7.10553 12.6088 7.10553 12.8198 7.2357 12.95L9.14286 14.8571H11.2857L11.6429 17H12.3571L12.7143 14.8571H14.8571L16.7643 12.95C16.8945 12.8198 16.8945 12.6088 16.7643 12.4786L16.2857 12L17 10.5714L15.5714 11.2857L15.0928 10.8071C14.9627 10.677 14.7516 10.677 14.6214 10.8071L14.207 11.2215Z" fill="#FF0726"/>
</g>
<path opacity="0.1" fill-rule="evenodd" clip-rule="evenodd" d="M22 4H2C1.44772 4 1 4.44772 1 5V19C1 19.5523 1.44772 20 2 20H22C22.5523 20 23 19.5523 23 19V5C23 4.44771 22.5523 4 22 4ZM2 3C0.895431 3 0 3.89543 0 5V19C0 20.1046 0.89543 21 2 21H22C23.1046 21 24 20.1046 24 19V5C24 3.89543 23.1046 3 22 3H2Z" fill="#100F0E"/>
</svg>
