<svg width="24" height="24" viewBox="0 0 24 24" fill="none" xmlns="http://www.w3.org/2000/svg">
<path d="M0 5C0 3.89543 0.895431 3 2 3H22C23.1046 3 24 3.89543 24 5V19C24 20.1046 23.1046 21 22 21H2C0.89543 21 0 20.1046 0 19V5Z" fill="#578CE0"/>
<path fill-rule="evenodd" clip-rule="evenodd" d="M4.99965 8.20194L3.2363 9.42705L3.85654 7.37142L2.14648 6.07295L4.29317 6.02761L4.99965 4L5.70614 6.02761L7.85282 6.07295L6.14277 7.37142L6.76301 9.42705L4.99965 8.20194Z" fill="#FACD62"/>
<path fill-rule="evenodd" clip-rule="evenodd" d="M0 14L24 4.5V10.5L0 20V14Z" fill="#FACD62"/>
<path fill-rule="evenodd" clip-rule="evenodd" d="M0 15L24 5.5V9L0 19V15Z" fill="#C74634"/>
<path opacity="0.1" fill-rule="evenodd" clip-rule="evenodd" d="M22 4H2C1.44772 4 1 4.44772 1 5V19C1 19.5523 1.44772 20 2 20H22C22.5523 20 23 19.5523 23 19V5C23 4.44771 22.5523 4 22 4ZM2 3C0.895431 3 0 3.89543 0 5V19C0 20.1046 0.89543 21 2 21H22C23.1046 21 24 20.1046 24 19V5C24 3.89543 23.1046 3 22 3H2Z" fill="#100F0E"/>
</svg>
