<svg width="24" height="24" viewBox="0 0 24 24" fill="none" xmlns="http://www.w3.org/2000/svg">
<path d="M2.99805 5C2.99805 3.89543 3.89348 3 4.99805 3H18.998C20.1026 3 20.998 3.89543 20.998 5V19C20.998 20.1046 20.1026 21 18.998 21H4.99805C3.89348 21 2.99805 20.1046 2.99805 19V5Z" fill="white"/>
<mask id="mask0_51_4165" style="mask-type:luminance" maskUnits="userSpaceOnUse" x="2" y="3" width="19" height="18">
<path d="M2.99805 5C2.99805 3.89543 3.89348 3 4.99805 3H18.998C20.1026 3 20.998 3.89543 20.998 5V19C20.998 20.1046 20.1026 21 18.998 21H4.99805C3.89348 21 2.99805 20.1046 2.99805 19V5Z" fill="white"/>
</mask>
<g mask="url(#mask0_51_4165)">
<path d="M2.99805 3H20.998V21H2.99805V3Z" fill="#E93526"/>
</g>
<path d="M10.998 7H12.998V17H10.998V7Z" fill="white"/>
<path d="M6.99805 13V11H16.998V13H6.99805Z" fill="white"/>
<path opacity="0.1" fill-rule="evenodd" clip-rule="evenodd" d="M18.998 4H4.99805C4.44576 4 3.99805 4.44772 3.99805 5V19C3.99805 19.5523 4.44576 20 4.99805 20H18.998C19.5503 20 19.998 19.5523 19.998 19V5C19.998 4.44772 19.5503 4 18.998 4ZM4.99805 3C3.89348 3 2.99805 3.89543 2.99805 5V19C2.99805 20.1046 3.89348 21 4.99805 21H18.998C20.1026 21 20.998 20.1046 20.998 19V5C20.998 3.89543 20.1026 3 18.998 3H4.99805Z" fill="#100F0E"/>
</svg>
