<svg width="24" height="24" viewBox="0 0 24 24" fill="none" xmlns="http://www.w3.org/2000/svg">
<path fill-rule="evenodd" clip-rule="evenodd" d="M0 11H24V5C24 3.89543 23.1046 3 22 3H2C0.89543 3 0 3.89543 0 5V11Z" fill="#FFDE00"/>
<path fill-rule="evenodd" clip-rule="evenodd" d="M0 19C0 20.1046 0.895431 21 2 21H22C23.1046 21 24 20.1046 24 19V16H0V19Z" fill="#E93425"/>
<path fill-rule="evenodd" clip-rule="evenodd" d="M0 16H24V11H0V16Z" fill="#004CA8"/>
<path opacity="0.1" fill-rule="evenodd" clip-rule="evenodd" d="M22 4H2C1.44772 4 1 4.44772 1 5V19C1 19.5523 1.44772 20 2 20H22C22.5523 20 23 19.5523 23 19V5C23 4.44771 22.5523 4 22 4ZM2 3C0.895431 3 0 3.89543 0 5V19C0 20.1046 0.89543 21 2 21H22C23.1046 21 24 20.1046 24 19V5C24 3.89543 23.1046 3 22 3H2Z" fill="#100F0E"/>
<path d="M12.3923 15.0613L11.3236 16.1203L11.2604 16.1715C11.1048 16.2734 10.8937 16.2562 10.7575 16.1191C10.602 15.9623 10.6029 15.7083 10.7597 15.5527L11.8281 14.4927L12.3923 15.0613Z" fill="#FFDE00"/>
<path d="M12.4434 14.984L11.6376 16.5434L11.193 16.3135L11.9988 14.7541L12.4434 14.984Z" fill="#004CA8"/>
<path d="M12.1745 14.4925C12.0178 14.3371 11.7646 14.3385 11.609 14.495C11.4535 14.6518 11.4536 14.9055 11.6103 15.0611L12.679 16.1201L12.7421 16.1713C12.8978 16.2732 13.1089 16.256 13.245 16.1189C13.4006 15.9621 13.3996 15.7081 13.2429 15.5525L12.1745 14.4925Z" fill="#FFDE00"/>
<path d="M11.543 14.984L12.3487 16.5434L12.7933 16.3135L11.9876 14.7541L11.543 14.984Z" fill="#004CA8"/>
<path d="M11.3503 8.72804C11.4537 8.78475 11.6625 8.91417 11.6706 8.97821C11.7396 8.93041 11.8839 8.85216 12.0045 8.84649C12.1224 8.84094 12.2456 8.91385 12.3385 8.97821C12.3466 8.91417 12.5554 8.78475 12.6588 8.72804C12.5296 7.19165 15.4299 8.7435 15.6927 8.87063C14.6802 8.95423 12.6431 8.90435 12.6414 9.832C12.5029 10.1097 12.3011 10.3527 11.9671 10.3039C11.6869 10.352 11.4553 10.0077 11.3677 9.832C11.3713 9.02306 9.32887 8.95423 8.31641 8.87063C8.57717 8.74445 11.4459 7.20564 11.3503 8.72804Z" fill="#452C25"/>
<path d="M12.005 10.9415L15.7736 9.49316V12.3898V13.0616C15.7736 14.3867 14.7657 15.4687 13.0023 15.4687L10.9406 15.461C9.17718 15.461 8.23633 14.3867 8.23633 13.0616V12.3898V9.49316L12.005 10.9415Z" fill="#FFDE00"/>
<path d="M12.0054 10.8585L14.9503 9.49316V12.2238V12.8571C14.9503 14.1063 14.3855 15.119 13.0076 15.119H11.0066C9.62863 15.119 9.06055 14.1063 9.06055 12.8571V12.2238V9.49316L12.0054 10.8585Z" fill="#004CA8"/>
<path d="M12.0045 10.8607L14.3173 9.78912L14.3215 12.4878V13.0329C14.3215 14.1081 13.4426 14.9797 12.3585 14.9797H11.6505C10.5663 14.9797 9.6875 14.1081 9.6875 13.0329V12.4878L9.6875 9.78125L12.0045 10.8607Z" fill="#ED1C24"/>
<path d="M13.9103 12.4027C13.9103 11.7216 13.7092 11.0683 13.3511 10.5867C12.9931 10.1051 12.5074 9.83447 12.0011 9.83447C11.4947 9.83447 11.0091 10.1051 10.651 10.5867C10.293 11.0683 10.0918 11.7216 10.0918 12.4027L12.0011 12.4027H13.9103Z" fill="#1DA8D1"/>
<path d="M10.0916 12.4029C10.0916 13.0841 10.2928 13.7373 10.6508 14.219C11.0089 14.7006 11.4945 14.9712 12.0009 14.9712C12.5073 14.9712 12.9929 14.7006 13.3509 14.219C13.709 13.7373 13.9102 13.0841 13.9102 12.4029L12.0009 12.4029L10.0916 12.4029Z" fill="#6DBE45"/>
<path d="M12.0029 9.98486C12.4718 9.98486 12.908 10.2399 13.2324 10.6763C13.5569 11.1127 13.7627 11.7226 13.7627 12.4028C13.7627 13.083 13.5568 13.693 13.2324 14.1294C12.908 14.5657 12.4717 14.8208 12.0029 14.8208C11.5342 14.8208 11.0978 14.5657 10.7734 14.1294C10.449 13.693 10.2442 13.083 10.2441 12.4028C10.2441 11.7226 10.449 11.1127 10.7734 10.6763C11.0979 10.2399 11.5341 9.98489 12.0029 9.98486Z" stroke="#B1BABF" stroke-width="0.3"/>
<rect x="10.8008" y="14.7769" width="2.40852" height="0.895218" rx="0.447609" fill="#A2550B"/>
</svg>
