<svg width="24" height="24" viewBox="0 0 24 24" fill="none" xmlns="http://www.w3.org/2000/svg">
<path fill-rule="evenodd" clip-rule="evenodd" d="M0 9H24V5C24 3.89543 23.1046 3 22 3H2C0.89543 3 0 3.89543 0 5V9Z" fill="#FF0726"/>
<path fill-rule="evenodd" clip-rule="evenodd" d="M0 15H24V9H0V15Z" fill="#FCFBFA"/>
<path fill-rule="evenodd" clip-rule="evenodd" d="M0 19C0 20.1046 0.895431 21 2 21H22C23.1046 21 24 20.1046 24 19V15H0V19Z" fill="#161513"/>
<path fill-rule="evenodd" clip-rule="evenodd" d="M15.7304 12V10H15.3484L14.2696 11.378L15.7304 12ZM8.65158 10.0059H8.271C8.27031 10.005 8.26961 10.0033 8.26961 10V12L9.73039 11.3799L8.65158 10.0059ZM11.0095 12.9952V14V12.9952H12L11.8019 12.7175C11.7299 12.6165 11.5929 12.452 11.4216 12.2919C11.2487 12.1303 11.0901 12.0301 11.032 12C10.9274 12.0471 10.777 12.1534 10.6171 12.2981C10.4358 12.4621 10.2861 12.6301 10.2042 12.7347L10 12.9952H11.0095ZM13.3982 11.0352C13.5251 11.2085 13.6 11.3333 13.6 11.3333L13.7789 11.0352C13.7789 11.0352 14.1494 10.7743 14.0298 10.617L14.2145 10.3092C14.3169 10.1385 14.5712 10 14.8037 10H15.2C15.6418 10 16 10.2877 16 10.6605V13.3395C16 13.7043 15.7057 13.8365 15.3442 13.6357L13.6 12.6667H12.8V13.3333C12.8 13.7015 12.4289 14 12 14C11.5582 14 11.2 13.6908 11.2 13.3333V12.6667H10.4L8.65581 13.6357C8.29362 13.8369 8 13.7123 8 13.3395V10.6605C8 10.2957 8.37109 10 8.8 10H9.19625C9.41924 10 9.67383 10.123 9.78555 10.3092L9.97793 10.6299C9.86366 10.7737 10.2124 11.0206 10.2124 11.0206L10.4 11.3333C10.4 11.3333 10.4848 11.2047 10.6234 11.0273L10.9083 10.6898C11.221 10.3489 11.6311 10 12 10C12.4015 10 12.803 10.3358 13.1033 10.6704L13.3982 11.0352Z" fill="#FACD62"/>
<path opacity="0.1" fill-rule="evenodd" clip-rule="evenodd" d="M22 4H2C1.44772 4 1 4.44772 1 5V19C1 19.5523 1.44772 20 2 20H22C22.5523 20 23 19.5523 23 19V5C23 4.44771 22.5523 4 22 4ZM2 3C0.895431 3 0 3.89543 0 5V19C0 20.1046 0.89543 21 2 21H22C23.1046 21 24 20.1046 24 19V5C24 3.89543 23.1046 3 22 3H2Z" fill="#100F0E"/>
</svg>
