<svg width="24" height="24" viewBox="0 0 24 24" fill="none" xmlns="http://www.w3.org/2000/svg">
<path fill-rule="evenodd" clip-rule="evenodd" d="M0 8H24V5C24 3.89543 23.1046 3 22 3H2C0.89543 3 0 3.89543 0 5V8Z" fill="#E70A2D"/>
<path fill-rule="evenodd" clip-rule="evenodd" d="M0 19C0 20.1046 0.895431 21 2 21H22C23.1046 21 24 20.1046 24 19V16H0V19Z" fill="#E70A2D"/>
<path fill-rule="evenodd" clip-rule="evenodd" d="M0 16H24V8H0V16Z" fill="#FACD62"/>
<path fill-rule="evenodd" clip-rule="evenodd" d="M5.40562 9C5.05684 9 4.8 9.29848 4.8 9.66667V9.99688C4.8 10.1906 4.93176 10.3333 5.09429 10.3333H6.90571C7.07097 10.3333 7.2 10.1827 7.2 9.99688V9.66667C7.2 9.30924 6.92885 9 6.59438 9H5.40562ZM4.2 10.3333H3V15H4.2V10.3333ZM5.10709 11C4.77686 11 4.52218 11.2957 4.54954 11.6605L4.7001 13.6681C4.75573 14.4098 5.33726 15 6 15C6.66736 15 7.24472 14.4037 7.2999 13.6681L7.45046 11.6605C7.47842 11.2877 7.22819 11 6.89291 11H5.10709ZM6 14.3333C5.64731 14.3333 5.32758 14.0067 5.29803 13.6127L5.25208 13H5.4L6 14.3333L6.6 13H6.74792L6.70197 13.6127C6.67253 14.0052 6.3531 14.3333 6 14.3333ZM6.79792 12.3333H5.20208L5.15208 11.6667H6.84792L6.79792 12.3333ZM7.8 10.3333H9V15H7.8V10.3333Z" fill="#C74634"/>
<path opacity="0.1" fill-rule="evenodd" clip-rule="evenodd" d="M22 4H2C1.44772 4 1 4.44772 1 5V19C1 19.5523 1.44772 20 2 20H22C22.5523 20 23 19.5523 23 19V5C23 4.44771 22.5523 4 22 4ZM2 3C0.895431 3 0 3.89543 0 5V19C0 20.1046 0.89543 21 2 21H22C23.1046 21 24 20.1046 24 19V5C24 3.89543 23.1046 3 22 3H2Z" fill="#100F0E"/>
</svg>
