<svg width="24" height="24" viewBox="0 0 24 24" fill="none" xmlns="http://www.w3.org/2000/svg">
<path fill-rule="evenodd" clip-rule="evenodd" d="M0 9H24V5C24 3.89543 23.1046 3 22 3H2C0.89543 3 0 3.89543 0 5V9Z" fill="#E70A2D"/>
<path fill-rule="evenodd" clip-rule="evenodd" d="M0 19C0 20.1046 0.895431 21 2 21H22C23.1046 21 24 20.1046 24 19V15H0V19Z" fill="#0A5DA7"/>
<path fill-rule="evenodd" clip-rule="evenodd" d="M0 15H24V9H0V15Z" fill="#FCFBFA"/>
<path d="M9 9H15V14C15 15.6569 13.6569 17 12 17C10.3431 17 9 15.6569 9 14V9Z" fill="#FCFBFA"/>
<mask id="mask0_51_563" style="mask-type:luminance" maskUnits="userSpaceOnUse" x="9" y="9" width="6" height="8">
<path d="M9 9H15V14C15 15.6569 13.6569 17 12 17C10.3431 17 9 15.6569 9 14V9Z" fill="white"/>
</mask>
<g mask="url(#mask0_51_563)">
<path fill-rule="evenodd" clip-rule="evenodd" d="M9 9H10V10H9V9ZM11 10H10V11H9V12H10V13H9V14H10V15H9V16H10V17H11V16H12V17H13V16H14V15H15V14H14V13H15V12H14V11H15V10H14V9H13V10H12V9H11V10ZM11 11V10H12V11H11ZM11 12V11H10V12H11ZM12 12V11H13V12H12ZM12 13V12H11V13H10V14H11V15H10V16H11V15H12V16H13V15H14V14H13V13H14V12H13V13H12ZM12 14H11V13H12V14ZM12 14H13V15H12V14ZM13 11V10H14V11H13Z" fill="#E70A2D"/>
</g>
<path fill-rule="evenodd" clip-rule="evenodd" d="M9.60034 6.92379L9.59891 6.92551L8.62254 6.56396L8.07617 7.44614L8.28546 7.92199L8.81566 9.12559C9.21157 8.95059 9.62429 8.80705 10.0507 8.69839L9.60043 6.92388L9.60034 6.92379Z" fill="#0093DD"/>
<path fill-rule="evenodd" clip-rule="evenodd" d="M11.1886 6.65832L11.1869 6.65969L10.2837 6.14209L9.59961 6.92389L10.0499 8.6984C10.4678 8.592 10.8988 8.5194 11.3398 8.48292L11.1885 6.65832H11.1886Z" fill="#171796"/>
<path fill-rule="evenodd" clip-rule="evenodd" d="M9.93618 8.2579C10.378 8.14542 10.8339 8.06859 11.3003 8.03008L11.2621 7.56885C10.7699 7.60956 10.2887 7.69065 9.82227 7.80928L9.93609 8.2579H9.93618Z" fill="#FF0000"/>
<path fill-rule="evenodd" clip-rule="evenodd" d="M9.71141 7.36587C10.202 7.24096 10.7081 7.15576 11.2258 7.1129L11.1883 6.66016C10.6451 6.70501 10.1142 6.79453 9.59961 6.92547L9.71141 7.36587Z" fill="#FF0000"/>
<path fill-rule="evenodd" clip-rule="evenodd" d="M12.7986 6.65849L12.7967 6.6596L11.9912 6L11.1875 6.65823L11.3388 8.48283C11.554 8.46506 11.7715 8.45557 11.9912 8.45557C12.212 8.45557 12.4304 8.46514 12.6466 8.48309L12.7985 6.65849H12.7986Z" fill="#0093DD"/>
<path fill-rule="evenodd" clip-rule="evenodd" d="M14.3894 6.92483L14.3872 6.9256L13.7018 6.14209L12.8004 6.65869L12.6484 8.48326C13.0896 8.51983 13.5205 8.59269 13.9383 8.69918L14.3893 6.92492L14.3894 6.92483Z" fill="#171796"/>
<path fill-rule="evenodd" clip-rule="evenodd" d="M15.1665 9.12494L15.9072 7.44614L15.3609 6.56396L14.3865 6.92474L13.9355 8.69899C14.3605 8.80739 14.7719 8.95059 15.1665 9.12502L15.1665 9.12494Z" fill="#0093DD"/>
<path fill-rule="evenodd" clip-rule="evenodd" d="M14.2233 7.57227C14.7114 7.69675 15.1839 7.86118 15.6371 8.06158L15.3513 8.70958C14.9337 8.52501 14.4985 8.37352 14.0488 8.25887L14.2233 7.57227Z" fill="white"/>
<path fill-rule="evenodd" clip-rule="evenodd" d="M15.3983 8.60537L15.5892 8.17266C15.1421 7.97497 14.676 7.81283 14.1946 7.68994L14.082 8.13263C14.5387 8.24917 14.9808 8.40303 15.4049 8.59048L15.3983 8.60537Z" fill="#FF0000"/>
<path opacity="0.1" fill-rule="evenodd" clip-rule="evenodd" d="M22 4H2C1.44772 4 1 4.44772 1 5V19C1 19.5523 1.44772 20 2 20H22C22.5523 20 23 19.5523 23 19V5C23 4.44771 22.5523 4 22 4ZM2 3C0.895431 3 0 3.89543 0 5V19C0 20.1046 0.89543 21 2 21H22C23.1046 21 24 20.1046 24 19V5C24 3.89543 23.1046 3 22 3H2Z" fill="#100F0E"/>
</svg>
