<svg width="24" height="24" viewBox="0 0 24 24" fill="none" xmlns="http://www.w3.org/2000/svg">
<path fill-rule="evenodd" clip-rule="evenodd" d="M0 12H24V5C24 3.89543 23.1046 3 22 3H2C0.89543 3 0 3.89543 0 5V12Z" fill="#0A5DA7"/>
<path fill-rule="evenodd" clip-rule="evenodd" d="M0 19C0 20.1046 0.895431 21 2 21H22C23.1046 21 24 20.1046 24 19V12H0V19Z" fill="#FF082A"/>
<path d="M8 9.5C8 9.22386 8.22386 9 8.5 9H15.5C15.7761 9 16 9.22386 16 9.5V14.5C16 14.7761 15.7761 15 15.5 15H8.5C8.22386 15 8 14.7761 8 14.5V9.5Z" fill="url(#paint0_linear_51_3277)"/>
<mask id="mask0_51_3277" style="mask-type:luminance" maskUnits="userSpaceOnUse" x="8" y="9" width="8" height="6">
<path d="M8 9.5C8 9.22386 8.22386 9 8.5 9H15.5C15.7761 9 16 9.22386 16 9.5V14.5C16 14.7761 15.7761 15 15.5 15H8.5C8.22386 15 8 14.7761 8 14.5V9.5Z" fill="white"/>
</mask>
<g mask="url(#mask0_51_3277)">
<path fill-rule="evenodd" clip-rule="evenodd" d="M8 14L9.26319 13.4474C9.82792 13.2003 10.7916 13 11.4274 13H12.5726C13.2031 13 14.1768 13.2024 14.7368 13.4474L16 14V15H8V14Z" fill="#AABCAE"/>
<path fill-rule="evenodd" clip-rule="evenodd" d="M9.29021 13.4419C9.84923 13.1973 10.8036 13 11.4268 13H12.5721C13.1901 13 14.1544 13.1994 14.7087 13.4419L15.9637 13.991V15H8.03516V13.991L9.29021 13.4419ZM11.4268 13.5C10.871 13.5 9.98504 13.6837 9.49062 13.9L8.53516 14.318V14.5H15.4637V14.318L14.5083 13.9C14.0186 13.6858 13.1226 13.5 12.5721 13.5H11.4268Z" fill="#366C14"/>
</g>
<mask id="mask1_51_3277" style="mask-type:luminance" maskUnits="userSpaceOnUse" x="8" y="9" width="8" height="6">
<path d="M8 9.5C8 9.22386 8.22386 9 8.5 9H15.5C15.7761 9 16 9.22386 16 9.5V14.5C16 14.7761 15.7761 15 15.5 15H8.5C8.22386 15 8 14.7761 8 14.5V9.5Z" fill="white"/>
</mask>
<g mask="url(#mask1_51_3277)">
<path d="M11.9994 13C12.9462 13 13.7137 12.3284 13.7137 11.5C13.7137 10.6716 12.9462 10 11.9994 10C11.0527 10 10.2852 10.6716 10.2852 11.5C10.2852 12.3284 11.0527 13 11.9994 13Z" fill="#D4B872"/>
</g>
<mask id="mask2_51_3277" style="mask-type:luminance" maskUnits="userSpaceOnUse" x="8" y="9" width="8" height="6">
<path d="M8 9.5C8 9.22386 8.22386 9 8.5 9H15.5C15.7761 9 16 9.22386 16 9.5V14.5C16 14.7761 15.7761 15 15.5 15H8.5C8.22386 15 8 14.7761 8 14.5V9.5Z" fill="white"/>
</mask>
<g mask="url(#mask2_51_3277)">
<path fill-rule="evenodd" clip-rule="evenodd" d="M9.14258 12.0058C9.14258 11.7264 9.34806 11.6438 9.58901 11.8124L11.5533 13.1874C11.7998 13.36 12.2052 13.3561 12.4461 13.1874L14.4104 11.8124C14.657 11.6398 14.8569 11.7306 14.8569 12.0058V13.494C14.8569 13.7734 14.6113 13.9999 14.2881 13.9999H9.71138C9.39724 13.9999 9.14258 13.7692 9.14258 13.494V12.0058Z" fill="#C28321"/>
<path fill-rule="evenodd" clip-rule="evenodd" d="M9.17773 11.54L11.5176 13.178C11.6429 13.2657 11.8162 13.3157 11.9998 13.3155C12.1836 13.3154 12.3564 13.265 12.4807 13.178L14.8206 11.54V13.4941C14.8206 13.8014 14.5614 14 14.2875 14H9.71082C9.4446 14 9.17773 13.7959 9.17773 13.4941V11.54ZM9.67773 12.5004V13.4875C9.67812 13.4878 9.67859 13.4883 9.67914 13.4888C9.68564 13.4946 9.69706 13.5 9.71082 13.5H11.1058L9.67773 12.5004ZM12.8925 13.5H14.2875C14.3072 13.5 14.3172 13.4945 14.3206 13.492V12.5004L12.8925 13.5Z" fill="#0D3488"/>
</g>
<mask id="mask3_51_3277" style="mask-type:luminance" maskUnits="userSpaceOnUse" x="8" y="9" width="8" height="6">
<path d="M8 9.5C8 9.22386 8.22386 9 8.5 9H15.5C15.7761 9 16 9.22386 16 9.5V14.5C16 14.7761 15.7761 15 15.5 15H8.5C8.22386 15 8 14.7761 8 14.5V9.5Z" fill="white"/>
</mask>
<g mask="url(#mask3_51_3277)">
<path d="M10.4821 10.1721C10.3735 10.077 10.4156 10 10.5777 10H13.4217C13.5831 10 13.6218 10.0806 13.5173 10.1721L12.1964 11.3279C12.0878 11.423 11.9075 11.4194 11.8031 11.3279L10.4821 10.1721Z" fill="#216C30"/>
</g>
<path opacity="0.1" fill-rule="evenodd" clip-rule="evenodd" d="M22 4H2C1.44772 4 1 4.44772 1 5V19C1 19.5523 1.44772 20 2 20H22C22.5523 20 23 19.5523 23 19V5C23 4.44771 22.5523 4 22 4ZM2 3C0.895431 3 0 3.89543 0 5V19C0 20.1046 0.89543 21 2 21H22C23.1046 21 24 20.1046 24 19V5C24 3.89543 23.1046 3 22 3H2Z" fill="#100F0E"/>
<defs>
<linearGradient id="paint0_linear_51_3277" x1="8" y1="9" x2="8" y2="15" gradientUnits="userSpaceOnUse">
<stop stop-color="white"/>
<stop offset="1" stop-color="#F0F0F0"/>
</linearGradient>
</defs>
</svg>
