<svg width="24" height="24" viewBox="0 0 24 24" fill="none" xmlns="http://www.w3.org/2000/svg">
<path fill-rule="evenodd" clip-rule="evenodd" d="M0 9H24V5C24 3.89543 23.1046 3 22 3H2C0.89543 3 0 3.89543 0 5V9Z" fill="#027E44"/>
<path fill-rule="evenodd" clip-rule="evenodd" d="M0 19C0 20.1046 0.895431 21 2 21H22C23.1046 21 24 20.1046 24 19V15H0V19Z" fill="#E70A2D"/>
<path fill-rule="evenodd" clip-rule="evenodd" d="M0 15H24V9H0V15Z" fill="#FCFBFA"/>
<path fill-rule="evenodd" clip-rule="evenodd" d="M12 10.2775C11.9083 10.41 11.7283 10.4418 11.5979 10.3487C11.4886 10.2705 11.4464 10.1262 11.4959 10C11.5239 10.1505 11.6665 10.2494 11.8146 10.2211C11.8925 10.2061 11.9602 10.1574 12 10.0876C12.0398 10.1574 12.1075 10.2061 12.1855 10.2211C12.3335 10.2494 12.4762 10.1505 12.5041 10C12.5536 10.1262 12.5114 10.2705 12.4021 10.3487C12.2717 10.4418 12.0917 10.41 12 10.2775ZM12.657 10.4987C13.2143 10.9862 13.4292 11.7662 13.202 12.477C13.0487 12.9568 12.721 13.3292 12.3135 13.5461C12.5623 13.6386 12.8283 13.6805 13.0962 13.6674C12.7818 13.7712 12.4599 13.7831 12.1582 13.7184L12.1556 13.7823L12 14L11.8444 13.7823L11.8419 13.7184C11.5401 13.7831 11.2182 13.7712 10.9038 13.6674C11.1717 13.6805 11.4377 13.6386 11.6865 13.5461C11.2791 13.3292 10.9513 12.9568 10.798 12.477C10.5708 11.7662 10.7857 10.9862 11.343 10.4987C10.7375 11.4096 10.9559 12.6398 11.8244 13.2808L11.764 11.7631V10.5682C11.8581 10.5224 11.9393 10.4531 12 10.3668C12.0607 10.4531 12.142 10.5224 12.2361 10.5682V11.7631L12.1756 13.2808C13.0441 12.6398 13.2625 11.4096 12.657 10.4987ZM12.8432 10.4608C13.2444 10.5629 13.5877 10.826 13.7947 11.1901C14.2169 11.9327 13.967 12.8825 13.2365 13.3117L13.2399 13.3072C13.9036 12.4098 13.726 11.1354 12.8432 10.4608ZM11.1568 10.4608C10.7556 10.5629 10.4123 10.826 10.2053 11.1901C9.78309 11.9327 10.033 12.8825 10.7635 13.3117L10.7601 13.3072C10.0965 12.4098 10.274 11.1354 11.1568 10.4608Z" fill="#E70A2D"/>
<path opacity="0.5" fill-rule="evenodd" clip-rule="evenodd" d="M2 8H1V9H2V8ZM4 8H3V9H4V8ZM5 8H6V9H5V8ZM8 8H7V9H8V8ZM9 8H10V9H9V8ZM12 8H11V9H12V8ZM13 8H14V9H13V8ZM16 8H15V9H16V8ZM17 8H18V9H17V8ZM20 8H19V9H20V8ZM21 8H22V9H21V8ZM24 8H23V9H24V8Z" fill="#FCFBFA"/>
<path opacity="0.5" fill-rule="evenodd" clip-rule="evenodd" d="M2 15H1V16H2V15ZM4 15H3V16H4V15ZM5 15H6V16H5V15ZM8 15H7V16H8V15ZM9 15H10V16H9V15ZM12 15H11V16H12V15ZM13 15H14V16H13V15ZM16 15H15V16H16V15ZM17 15H18V16H17V15ZM20 15H19V16H20V15ZM21 15H22V16H21V15ZM24 15H23V16H24V15Z" fill="#FCFBFA"/>
<path opacity="0.1" fill-rule="evenodd" clip-rule="evenodd" d="M22 4H2C1.44772 4 1 4.44772 1 5V19C1 19.5523 1.44772 20 2 20H22C22.5523 20 23 19.5523 23 19V5C23 4.44771 22.5523 4 22 4ZM2 3C0.895431 3 0 3.89543 0 5V19C0 20.1046 0.89543 21 2 21H22C23.1046 21 24 20.1046 24 19V5C24 3.89543 23.1046 3 22 3H2Z" fill="#100F0E"/>
</svg>
