<svg width="24" height="24" viewBox="0 0 24 24" fill="none" xmlns="http://www.w3.org/2000/svg">
<path d="M0 5C0 3.89543 0.895431 3 2 3H22C23.1046 3 24 3.89543 24 5V19C24 20.1046 23.1046 21 22 21H2C0.89543 21 0 20.1046 0 19V5Z" fill="#FCFBFA"/>
<path opacity="0.1" fill-rule="evenodd" clip-rule="evenodd" d="M22 4H2C1.44772 4 1 4.44772 1 5V19C1 19.5523 1.44772 20 2 20H22C22.5523 20 23 19.5523 23 19V5C23 4.44771 22.5523 4 22 4ZM2 3C0.895431 3 0 3.89543 0 5V19C0 20.1046 0.89543 21 2 21H22C23.1046 21 24 20.1046 24 19V5C24 3.89543 23.1046 3 22 3H2Z" fill="#100F0E"/>
<path fill-rule="evenodd" clip-rule="evenodd" d="M6.43398 6.23705L6.75147 6.44869L4.63496 9.62346L4 9.20016L6.1165 6.02539L6.43398 6.23705ZM18.5519 7.66173L18.8697 7.4572L17.8808 6.02539L17.5629 6.22992L17.245 6.43446L18.234 7.86629L18.5519 7.66173ZM17.2804 8.47993L16.9625 8.68446L16.6446 8.889L15.6556 7.45719L15.9735 7.25266L16.2914 7.04812L17.2804 8.47993ZM5.58941 13.9345L5.90729 13.7299L6.22518 13.5254L8.34439 16.5936L8.0265 16.7981L7.70861 17.0027L5.58941 13.9345ZM5.92496 16.0822L6.24283 15.8777L6.56071 15.6731L7.54967 17.1049L7.23179 17.3095L6.9139 17.514L5.92496 16.0822ZM5.78368 15.8777L6.10154 15.6731L6.41942 15.4686L5.43046 14.0367L4.79469 14.4458L5.78368 15.8777ZM19.2053 9.60493L18.8874 9.80946L18.5696 10.014L16.4503 6.94582L17.0861 6.53676L19.2053 9.60493ZM18.3753 8.07083L19.3643 9.50266L20 9.09357L19.011 7.66173L18.6931 7.86627L18.3753 8.07083ZM18.4106 10.1163L18.0927 10.3208L17.7749 10.5254L16.7859 9.09354L17.1038 8.88901L17.4216 8.68447L18.4106 10.1163ZM5.43047 10.014L7.54967 6.94582L7.23179 6.74128L6.9139 6.53675L4.7947 9.60493L5.43047 10.014ZM7.70861 7.04811L5.58941 10.1163L6.22518 10.5254L8.34439 7.4572L8.0265 7.25264L7.70861 7.04811ZM19.2053 14.4458L18.2163 15.8777L17.8985 15.6731L17.5806 15.4686L18.5695 14.0368L18.8874 14.2413L19.2053 14.4458ZM17.7572 15.8777L17.4393 15.6731L16.4503 17.1049L17.0861 17.514L18.075 16.0822L17.7572 15.8777ZM16.6446 15.1618L16.9625 15.3663L17.2804 15.5708L16.2914 17.0026L15.9735 16.7981L15.6556 16.5936L16.6446 15.1618ZM17.1038 15.1618L17.4216 15.3663L18.4106 13.9345L17.7749 13.5254L16.7859 14.9572L17.1038 15.1618ZM17.245 17.6163L18.234 16.1845L18.5519 16.389L18.8698 16.5936L17.8808 18.0254L17.5629 17.8208L17.245 17.6163ZM18.3753 15.9799L18.6932 16.1845L19.011 16.389L20 14.9572L19.3643 14.5481L18.3753 15.9799ZM6.11921 18.0254L4 14.9572L4.63577 14.5481L6.75498 17.6163L6.43709 17.8208L6.11921 18.0254Z" fill="#161513"/>
<path fill-rule="evenodd" clip-rule="evenodd" d="M14.106 9.0592C12.3526 7.89029 9.98366 8.36408 8.81475 10.1175C8.2303 10.9941 8.4672 12.1786 9.34389 12.7631C10.2206 13.3475 11.405 13.1106 11.9895 12.234C12.574 11.3573 13.7585 11.1204 14.6351 11.7048C15.5118 12.2893 15.7487 13.4738 15.1643 14.3505C16.3332 12.5971 15.8594 10.2281 14.106 9.0592Z" fill="#EA432E"/>
<path d="M14.6354 11.7046C13.7588 11.1201 12.5743 11.357 11.9898 12.2337C11.4054 13.1104 10.2209 13.3473 9.34418 12.7628C8.46749 12.1784 8.23059 10.9939 8.81506 10.1172C7.64615 11.8705 8.11994 14.2395 9.8733 15.4085C11.6267 16.5774 13.9957 16.1036 15.1646 14.3502C15.749 13.4735 15.5121 12.289 14.6354 11.7046Z" fill="#00249F"/>
</svg>
