<svg width="24" height="24" viewBox="0 0 24 24" fill="none" xmlns="http://www.w3.org/2000/svg">
<path d="M0 5C0 3.89543 0.895431 3 2 3H22C23.1046 3 24 3.89543 24 5V19C24 20.1046 23.1046 21 22 21H2C0.89543 21 0 20.1046 0 19V5Z" fill="#E70A2D"/>
<path fill-rule="evenodd" clip-rule="evenodd" d="M12 14.6837L8.90983 17L10.05 13.1941L7 11H11L12 7L13 11H17L13.95 13.1941L15.0902 17L12 14.6837ZM12 13.5819L13.2361 14.5084L12.78 12.4776L14 12.0363L12.4821 12.0219L12 10.5084L11.5179 12.0219L10 12.0363L11.22 12.9861L10.7639 14.5084L12 13.5819Z" fill="#467146"/>
<path opacity="0.1" fill-rule="evenodd" clip-rule="evenodd" d="M22 4H2C1.44772 4 1 4.44772 1 5V19C1 19.5523 1.44772 20 2 20H22C22.5523 20 23 19.5523 23 19V5C23 4.44771 22.5523 4 22 4ZM2 3C0.895431 3 0 3.89543 0 5V19C0 20.1046 0.89543 21 2 21H22C23.1046 21 24 20.1046 24 19V5C24 3.89543 23.1046 3 22 3H2Z" fill="#100F0E"/>
</svg>
