<svg width="24" height="24" viewBox="0 0 24 24" fill="none" xmlns="http://www.w3.org/2000/svg">
<path fill-rule="evenodd" clip-rule="evenodd" d="M0 19C0 20.1046 0.895431 21 2 21H8V3H2C0.895431 3 0 3.89543 0 5V19Z" fill="#027E44"/>
<path fill-rule="evenodd" clip-rule="evenodd" d="M24 19C24 20.1046 23.1046 21 22 21H16V3H22C23.1046 3 24 3.89543 24 5V19Z" fill="#E93526"/>
<path d="M8 3H16V21H8V3Z" fill="#FCFBFA"/>
<path opacity="0.1" fill-rule="evenodd" clip-rule="evenodd" d="M22 4H2C1.44772 4 1 4.44772 1 5V19C1 19.5523 1.44772 20 2 20H22C22.5523 20 23 19.5523 23 19V5C23 4.44771 22.5523 4 22 4ZM2 3C0.895431 3 0 3.89543 0 5V19C0 20.1046 0.89543 21 2 21H22C23.1046 21 24 20.1046 24 19V5C24 3.89543 23.1046 3 22 3H2Z" fill="#100F0E"/>
<circle cx="12.002" cy="12" r="2" fill="#8F520A"/>
</svg>
