<svg width="24" height="24" viewBox="0 0 24 24" fill="none" xmlns="http://www.w3.org/2000/svg">
<path d="M3 5C3 3.89543 3.89543 3 5 3H22C23.1046 3 24 3.89543 24 5V19C24 20.1046 23.1046 21 22 21H5C3.89543 21 3 20.1046 3 19V5Z" fill="#F73838"/>
<path fill-rule="evenodd" clip-rule="evenodd" d="M0 19C0 20.1046 0.895431 21 2 21H10V3H2C0.89543 3 0 3.89543 0 5V19Z" fill="#008C34"/>
<path fill-rule="evenodd" clip-rule="evenodd" d="M5 12C5 14.7614 7.23858 17 10 17C12.7614 17 15 14.7614 15 12C15 9.23858 12.7614 7 10 7C7.23858 7 5 9.23858 5 12ZM14 12C14 14.2091 12.2091 16 10 16C7.79086 16 6 14.2091 6 12C6 9.79086 7.79086 8 10 8C12.2091 8 14 9.79086 14 12Z" fill="url(#paint0_linear_51_3728)"/>
<path fill-rule="evenodd" clip-rule="evenodd" d="M8 9.45472C8 9.20358 8.21506 9 8.49048 9H11.5095C11.7804 9 12 9.20256 12 9.45472V12.5574C12 13.5382 11.1123 14.3333 10 14.3333C8.89543 14.3333 8 13.5464 8 12.5574V9.45472Z" fill="#FCFBFA"/>
<path fill-rule="evenodd" clip-rule="evenodd" d="M10 13C10.5523 13 11 11.5523 11 11C11 10.4477 10.5523 10 10 10C9.44772 10 9 10.4477 9 11C9 11.5523 9.44772 13 10 13Z" fill="#0A5DA7"/>
<path opacity="0.1" fill-rule="evenodd" clip-rule="evenodd" d="M22 4H2C1.44772 4 1 4.44772 1 5V19C1 19.5523 1.44772 20 2 20H22C22.5523 20 23 19.5523 23 19V5C23 4.44771 22.5523 4 22 4ZM2 3C0.895431 3 0 3.89543 0 5V19C0 20.1046 0.89543 21 2 21H22C23.1046 21 24 20.1046 24 19V5C24 3.89543 23.1046 3 22 3H2Z" fill="#3F3A36"/>
<defs>
<linearGradient id="paint0_linear_51_3728" x1="5" y1="7" x2="5" y2="17" gradientUnits="userSpaceOnUse">
<stop stop-color="#FAF94F"/>
<stop offset="1" stop-color="#F8F736"/>
</linearGradient>
</defs>
</svg>
