<svg width="24" height="24" viewBox="0 0 24 24" fill="none" xmlns="http://www.w3.org/2000/svg">
<path d="M2 3H22C23.1046 3 24 3.89543 24 5V19C24 20.1046 23.1046 21 22 21H2V3Z" fill="#A5143B"/>
<path fill-rule="evenodd" clip-rule="evenodd" d="M7 3L11 5L7 6.6L11 8.4L7 10.2L11 11.9976L7 13.8L11 15.6L7 17.4L11 19.2L7.39146 20.8238C7.13343 20.94 6.85369 21 6.57073 21H2C0.89543 21 0 20.1046 0 19L0 5C0 3.89543 0.895431 3 2 3H7Z" fill="#FCFBFA"/>
<path opacity="0.1" fill-rule="evenodd" clip-rule="evenodd" d="M22 4H2C1.44772 4 1 4.44772 1 5V19C1 19.5523 1.44772 20 2 20H22C22.5523 20 23 19.5523 23 19V5C23 4.44771 22.5523 4 22 4ZM2 3C0.895431 3 0 3.89543 0 5V19C0 20.1046 0.89543 21 2 21H22C23.1046 21 24 20.1046 24 19V5C24 3.89543 23.1046 3 22 3H2Z" fill="#100F0E"/>
</svg>
