<svg width="24" height="24" viewBox="0 0 24 24" fill="none" xmlns="http://www.w3.org/2000/svg">
<path d="M0 5C0 3.89543 0.895431 3 2 3H22C23.1046 3 24 3.89543 24 5V19C24 20.1046 23.1046 21 22 21H2C0.89543 21 0 20.1046 0 19V5Z" fill="#467146"/>
<path d="M4 14.7934H15.6364V13.5995C15.6364 13.262 15.9168 13.1044 16.2955 13.261L17.0909 13.5901V14.7934H19.2659C19.6713 14.7934 20 15.051 20 15.4008V15.9968C20 16.6614 19.3561 17.2002 18.547 17.2002H16.3569C15.959 17.2002 15.6364 16.9211 15.6364 16.5985V15.9968H6.1868C5.78239 15.9968 5.22727 15.8088 4.94582 15.5759L4 14.7934Z" fill="url(#paint0_linear_51_3786)"/>
<path d="M4 10.0031C4 9.8173 4.13021 9.5625 4.30085 9.42598L4.53248 9.24068C4.69864 9.10776 4.70312 8.89583 4.53248 8.75932L4.30085 8.57402C4.1347 8.44109 4 8.19064 4 7.99688V7.33646C4 7.15064 4.17836 7 4.42057 7H5.2461C5.47837 7 5.66667 7.14269 5.66667 7.33646V7.99688C5.66667 8.1827 5.74357 8.21029 5.85994 8.02409L6.30672 7.30924C6.41347 7.13845 6.69617 7 6.91282 7H8.58718C8.81517 7 9 7.15462 9 7.33333C9 7.51743 8.82164 7.66667 8.57943 7.66667H7.7539C7.52163 7.66667 7.33333 7.82129 7.33333 8C7.33333 8.18409 7.5117 8.33333 7.7539 8.33333H8.57943C8.8117 8.33333 9 8.4767 9 8.66032V10.673C9 10.8536 8.82164 11 8.57943 11H7.7539C7.52163 11 7.33333 10.8573 7.33333 10.6635V10.0031C7.33333 9.8173 7.52661 9.66667 7.75 9.66667C7.98012 9.66667 8.16667 9.51204 8.16667 9.33333C8.16667 9.14924 7.9883 9 7.7461 9H6.92057C6.6883 9 6.5 9.15694 6.5 9.33026V10.6697C6.5 10.8521 6.30672 11 6.08333 11C5.85321 11 5.66667 10.8573 5.66667 10.6635V10.0031C5.66667 9.8173 5.47339 9.66667 5.25 9.66667C5.01988 9.66667 4.83333 9.80936 4.83333 10.0031V10.6635C4.83333 10.8494 4.64006 11 4.41667 11C4.18655 11 4 10.8573 4 10.6635V10.0031Z" fill="url(#paint1_linear_51_3786)"/>
<path d="M15 10.0031C15 9.8173 15.1302 9.5625 15.3009 9.42598L15.5325 9.24068C15.6986 9.10776 15.7031 8.89583 15.5325 8.75932L15.3009 8.57402C15.1347 8.44109 15 8.19064 15 7.99688V7.33646C15 7.15064 15.1784 7 15.4206 7H16.2461C16.4784 7 16.6667 7.14269 16.6667 7.33646V7.99688C16.6667 8.1827 16.7436 8.21029 16.8599 8.02409L17.3067 7.30924C17.4135 7.13845 17.6962 7 17.9128 7H19.5872C19.8152 7 20 7.15462 20 7.33333C20 7.51743 19.8216 7.66667 19.5794 7.66667H18.7539C18.5216 7.66667 18.3333 7.82129 18.3333 8C18.3333 8.18409 18.5117 8.33333 18.7539 8.33333H19.5794C19.8117 8.33333 20 8.4767 20 8.66032V10.673C20 10.8536 19.8216 11 19.5794 11H18.7539C18.5216 11 18.3333 10.8573 18.3333 10.6635V10.0031C18.3333 9.8173 18.5266 9.66667 18.75 9.66667C18.9801 9.66667 19.1667 9.51204 19.1667 9.33333C19.1667 9.14924 18.9883 9 18.7461 9H17.9206C17.6883 9 17.5 9.15694 17.5 9.33026V10.6697C17.5 10.8521 17.3067 11 17.0833 11C16.8532 11 16.6667 10.8573 16.6667 10.6635V10.0031C16.6667 9.8173 16.4734 9.66667 16.25 9.66667C16.0199 9.66667 15.8333 9.80936 15.8333 10.0031V10.6635C15.8333 10.8494 15.6401 11 15.4167 11C15.1865 11 15 10.8573 15 10.6635V10.0031Z" fill="url(#paint2_linear_51_3786)"/>
<path d="M15 7.99688C15 8.1827 14.8698 8.4375 14.6991 8.57402L14.4675 8.75932C14.3014 8.89224 14.2969 9.10417 14.4675 9.24068L14.6991 9.42598C14.8653 9.55891 15 9.80936 15 10.0031V10.6635C15 10.8494 14.8216 11 14.5794 11H13.7539C13.5216 11 13.3333 10.8573 13.3333 10.6635V10.0031C13.3333 9.8173 13.2564 9.78971 13.1401 9.97591L12.6933 10.6908C12.5865 10.8615 12.3038 11 12.0872 11H10.4128C10.1848 11 10 10.8454 10 10.6667C10 10.4826 10.1784 10.3333 10.4206 10.3333H11.2461C11.4784 10.3333 11.6667 10.1787 11.6667 10C11.6667 9.81591 11.4883 9.66667 11.2461 9.66667H10.4206C10.1883 9.66667 10 9.52329 10 9.33968V7.32699C10 7.1464 10.1784 7 10.4206 7H11.2461C11.4784 7 11.6667 7.14269 11.6667 7.33646V7.99688C11.6667 8.1827 11.4734 8.33333 11.25 8.33333C11.0199 8.33333 10.8333 8.48796 10.8333 8.66667C10.8333 8.85076 11.0117 9 11.2539 9H12.0794C12.3117 9 12.5 8.84306 12.5 8.66974V7.33026C12.5 7.14786 12.6933 7 12.9167 7C13.1468 7 13.3333 7.14269 13.3333 7.33646V7.99688C13.3333 8.1827 13.5266 8.33333 13.75 8.33333C13.9801 8.33333 14.1667 8.19064 14.1667 7.99688V7.33646C14.1667 7.15064 14.3599 7 14.5833 7C14.8135 7 15 7.14269 15 7.33646V7.99688Z" fill="url(#paint3_linear_51_3786)"/>
<path opacity="0.1" fill-rule="evenodd" clip-rule="evenodd" d="M22 4H2C1.44772 4 1 4.44772 1 5V19C1 19.5523 1.44772 20 2 20H22C22.5523 20 23 19.5523 23 19V5C23 4.44771 22.5523 4 22 4ZM2 3C0.895431 3 0 3.89543 0 5V19C0 20.1046 0.89543 21 2 21H22C23.1046 21 24 20.1046 24 19V5C24 3.89543 23.1046 3 22 3H2Z" fill="#100F0E"/>
<defs>
<linearGradient id="paint0_linear_51_3786" x1="4" y1="13.2002" x2="4" y2="17.2002" gradientUnits="userSpaceOnUse">
<stop stop-color="white"/>
<stop offset="1" stop-color="#F0F0F0"/>
</linearGradient>
<linearGradient id="paint1_linear_51_3786" x1="4" y1="7" x2="4" y2="11" gradientUnits="userSpaceOnUse">
<stop stop-color="white"/>
<stop offset="1" stop-color="#F0F0F0"/>
</linearGradient>
<linearGradient id="paint2_linear_51_3786" x1="15" y1="7" x2="15" y2="11" gradientUnits="userSpaceOnUse">
<stop stop-color="white"/>
<stop offset="1" stop-color="#F0F0F0"/>
</linearGradient>
<linearGradient id="paint3_linear_51_3786" x1="10" y1="7" x2="10" y2="11" gradientUnits="userSpaceOnUse">
<stop stop-color="white"/>
<stop offset="1" stop-color="#F0F0F0"/>
</linearGradient>
</defs>
</svg>
