<svg width="24" height="24" viewBox="0 0 24 24" fill="none" xmlns="http://www.w3.org/2000/svg">
<path d="M0 5C0 3.89543 0.895431 3 2 3H22C23.1046 3 24 3.89543 24 5V19C24 20.1046 23.1046 21 22 21H2C0.89543 21 0 20.1046 0 19V5Z" fill="#E70A2D"/>
<path fill-rule="evenodd" clip-rule="evenodd" d="M12 17C9.23858 17 7 14.7614 7 12C7 9.23858 9.23858 7 12 7C14.7614 7 17 9.23858 17 12C17 14.7614 14.7614 17 12 17ZM14 8.31241C13.4842 8.11122 12.9174 8 12.3225 8C9.93523 8 8 9.79086 8 12C8 14.2091 9.93523 16 12.3225 16C12.9174 16 13.4842 15.8888 14 15.6876C12.0114 15.4666 10.47 13.8999 10.47 12C10.47 10.1001 12.0114 8.53344 14 8.31241ZM14.8995 13.3593L13.7954 12.8273L13.0454 14L13.0965 12.4813L12 11.9238L13.1357 11.5172L13.208 10L13.8588 11.2673L15 10.8872L14.2665 12.077L14.8995 13.3593Z" fill="url(#paint0_linear_51_4190)"/>
<path opacity="0.1" fill-rule="evenodd" clip-rule="evenodd" d="M22 4H2C1.44772 4 1 4.44772 1 5V19C1 19.5523 1.44772 20 2 20H22C22.5523 20 23 19.5523 23 19V5C23 4.44771 22.5523 4 22 4ZM2 3C0.895431 3 0 3.89543 0 5V19C0 20.1046 0.89543 21 2 21H22C23.1046 21 24 20.1046 24 19V5C24 3.89543 23.1046 3 22 3H2Z" fill="#100F0E"/>
<defs>
<linearGradient id="paint0_linear_51_4190" x1="7" y1="7" x2="7" y2="17" gradientUnits="userSpaceOnUse">
<stop stop-color="white"/>
<stop offset="1" stop-color="#F0F0F0"/>
</linearGradient>
</defs>
</svg>
