<svg width="24" height="24" viewBox="0 0 24 24" fill="none" xmlns="http://www.w3.org/2000/svg">
<path d="M0 5C0 3.89543 0.895431 3 2 3H22C23.1046 3 24 3.89543 24 5V19C24 20.1046 23.1046 21 22 21H2C0.89543 21 0 20.1046 0 19V5Z" fill="#E70A2D"/>
<path fill-rule="evenodd" clip-rule="evenodd" d="M10.4592 7.72222C11.5095 7.72222 12.4764 8.05844 13.2455 8.6229C12.2488 7.33095 10.6937 6.5 8.94637 6.5C5.93842 6.5 3.5 8.96243 3.5 12C3.5 15.0376 5.93842 17.5 8.94637 17.5C10.6937 17.5 12.2488 16.669 13.2455 15.3771C12.4764 15.9416 11.5095 16.2778 10.4592 16.2778C7.95262 16.2778 5.92061 14.3626 5.92061 12C5.92061 9.63745 7.95262 7.72222 10.4592 7.72222ZM12.9798 15.0633L14.3305 13.4096L16.3191 14.1597L15.179 12.3515L16.5 10.6734L14.4447 11.2096L13.2726 9.42233L13.1424 11.562L11.097 12.1354L13.0718 12.9216L12.9798 15.0633Z" fill="url(#paint0_linear_51_4214)"/>
<path opacity="0.1" fill-rule="evenodd" clip-rule="evenodd" d="M22 4H2C1.44772 4 1 4.44772 1 5V19C1 19.5523 1.44772 20 2 20H22C22.5523 20 23 19.5523 23 19V5C23 4.44771 22.5523 4 22 4ZM2 3C0.895431 3 0 3.89543 0 5V19C0 20.1046 0.89543 21 2 21H22C23.1046 21 24 20.1046 24 19V5C24 3.89543 23.1046 3 22 3H2Z" fill="#100F0E"/>
<defs>
<linearGradient id="paint0_linear_51_4214" x1="3.5" y1="6.5" x2="3.5" y2="17.5" gradientUnits="userSpaceOnUse">
<stop stop-color="white"/>
<stop offset="1" stop-color="#F0F0F0"/>
</linearGradient>
</defs>
</svg>
