<svg width="24" height="24" viewBox="0 0 24 24" fill="none" xmlns="http://www.w3.org/2000/svg">
<mask id="mask0_51_4333" style="mask-type:luminance" maskUnits="userSpaceOnUse" x="0" y="3" width="24" height="18">
<path d="M0 5C0 3.89543 0.895431 3 2 3H22C23.1046 3 24 3.89543 24 5V19C24 20.1046 23.1046 21 22 21H2C0.89543 21 0 20.1046 0 19V5Z" fill="white"/>
</mask>
<g mask="url(#mask0_51_4333)">
<path d="M0 5C0 3.89543 0.895431 3 2 3H22C23.1046 3 24 3.89543 24 5V19C24 20.1046 23.1046 21 22 21H2C0.89543 21 0 20.1046 0 19V5Z" fill="white"/>
<path d="M0 3H11V13H0V3Z" fill="#003D8A"/>
<path fill-rule="evenodd" clip-rule="evenodd" d="M11 3H24V5H11V3ZM11 7H24V9H11V7ZM24 11H11V13H24V11ZM0 15H24V17H0V15ZM24 19H0V21H24V19Z" fill="#E93526"/>
<path fill-rule="evenodd" clip-rule="evenodd" d="M3 4H2V5H1V6H2V7H1V8H2V9H1V10H2V11H1V12H2V11H3V12H4V11H5V12H6V11H7V12H8V11H9V12H10V11H9V10H10V9H9V8H10V7H9V6H10V5H9V4H8V5H7V4H6V5H5V4H4V5H3V4ZM3 6V5H2V6H3ZM4 6V5H5V6H4ZM4 7V6H3V7H2V8H3V9H2V10H3V11H4V10H5V11H6V10H7V11H8V10H9V9H8V8H9V7H8V6H9V5H8V6H7V5H6V6H5V7H4ZM4 8V7H3V8H4ZM5 8V7H6V8H5ZM5 9V8H4V9H3V10H4V9H5ZM6 9V10H5V9H6ZM7 9H8V10H7V9ZM7 8V9H6V8H7ZM7 7H8V8H7V7ZM7 7V6H6V7H7Z" fill="white"/>
</g>
<path opacity="0.1" fill-rule="evenodd" clip-rule="evenodd" d="M22 4H2C1.44772 4 1 4.44772 1 5V19C1 19.5523 1.44772 20 2 20H22C22.5523 20 23 19.5523 23 19V5C23 4.44771 22.5523 4 22 4ZM2 3C0.895431 3 0 3.89543 0 5V19C0 20.1046 0.89543 21 2 21H22C23.1046 21 24 20.1046 24 19V5C24 3.89543 23.1046 3 22 3H2Z" fill="#100F0E"/>
</svg>
