<svg width="24" height="24" viewBox="0 0 24 24" fill="none" xmlns="http://www.w3.org/2000/svg">
<mask id="mask0_51_4284" style="mask-type:luminance" maskUnits="userSpaceOnUse" x="0" y="3" width="24" height="18">
<rect y="3" width="24" height="18" rx="2" fill="white"/>
</mask>
<g mask="url(#mask0_51_4284)">
<rect y="3" width="24" height="18" rx="2" fill="#FCFBFA"/>
<rect y="3" width="11" height="10" fill="#FCFBFA"/>
<path d="M24 19H0V17H24V19ZM24 15H0V13H24V15ZM24 11H10V9H24V11ZM24 7H10V5H24V7Z" fill="#003D8A"/>
<path fill-rule="evenodd" clip-rule="evenodd" d="M5 9.85308L4.33244 10.8496L4.16334 9.66212L3.12953 10.2703L3.4924 9.12706L2.29709 9.22644L3.12005 8.35387L2 7.92478L3.12005 7.4957L2.29709 6.62313L3.4924 6.72251L3.12953 5.57929L4.16334 6.18745L4.33244 5L5 5.99649L5.66756 5L5.83666 6.18745L6.87047 5.57929L6.5076 6.72251L7.70291 6.62313L6.87995 7.4957L8 7.92478L6.87995 8.35387L7.70291 9.22644L6.5076 9.12706L6.87047 10.2703L5.83666 9.66212L5.66756 10.8496L5 9.85308ZM5 9.83387C6.05436 9.83387 6.90909 8.97915 6.90909 7.92478C6.90909 6.87042 6.05436 6.01569 5 6.01569C3.94564 6.01569 3.09091 6.87042 3.09091 7.92478C3.09091 8.97915 3.94564 9.83387 5 9.83387ZM3.5 7.8621C3.5 8.69053 4.17157 9.3621 5 9.3621C5.82843 9.3621 6.5 8.69053 6.5 7.8621C6.5 7.03368 5.82843 6.3621 5 6.3621C4.17157 6.3621 3.5 7.03368 3.5 7.8621Z" fill="url(#paint0_linear_51_4284)"/>
<path fill-rule="evenodd" clip-rule="evenodd" d="M5.5 7.6123C5.36193 7.6123 5.25 7.50038 5.25 7.3623C5.25 7.22423 5.36193 7.1123 5.5 7.1123C5.63807 7.1123 5.75 7.22423 5.75 7.3623C5.75 7.50038 5.63807 7.6123 5.5 7.6123ZM4.125 7.8623C4.125 7.79327 4.18096 7.7373 4.25 7.7373C4.31904 7.7373 4.375 7.79327 4.375 7.8623C4.375 7.96852 4.40142 8.07062 4.45116 8.1616C4.56009 8.36084 4.76886 8.4873 5 8.4873C5.24309 8.4873 5.46087 8.34733 5.56406 8.1319C5.57422 8.11195 5.57901 8.10254 5.58409 8.09329C5.58861 8.08504 5.59337 8.07691 5.60236 8.06154L5.61585 8.03886C5.66353 7.95875 5.67828 7.92052 5.67828 7.8623C5.67828 7.79327 5.73425 7.7373 5.80328 7.7373C5.87232 7.7373 5.92828 7.79327 5.92828 7.8623C5.92828 7.97649 5.89948 8.05111 5.83068 8.16672L5.8176 8.18872L5.81759 8.18872C5.80162 8.2161 5.80162 8.2161 5.78953 8.2399C5.64515 8.54131 5.34022 8.7373 5 8.7373C4.67654 8.7373 4.38415 8.56018 4.2318 8.28153C4.16208 8.154 4.125 8.01069 4.125 7.8623ZM4.25 7.3623C4.25 7.50038 4.36193 7.6123 4.5 7.6123C4.63807 7.6123 4.75 7.50038 4.75 7.3623C4.75 7.22423 4.63807 7.1123 4.5 7.1123C4.36193 7.1123 4.25 7.22423 4.25 7.3623Z" fill="#C6A326"/>
</g>
<rect opacity="0.1" x="0.5" y="3.5" width="23" height="17" rx="1.5" stroke="#100F0E"/>
<defs>
<linearGradient id="paint0_linear_51_4284" x1="2" y1="5" x2="2" y2="10.8496" gradientUnits="userSpaceOnUse">
<stop stop-color="#FED443"/>
<stop offset="1" stop-color="#FCD036"/>
</linearGradient>
</defs>
</svg>
