<svg width="24" height="24" viewBox="0 0 24 24" fill="none" xmlns="http://www.w3.org/2000/svg">
<path d="M0 5C0 3.89543 0.895431 3 2 3H22C23.1046 3 24 3.89543 24 5V19C24 20.1046 23.1046 21 22 21H2C0.89543 21 0 20.1046 0 19V5Z" fill="#001BB0"/>
<path d="M8 10H24V15H8V10Z" fill="white"/>
<mask id="mask0_51_3933" style="mask-type:luminance" maskUnits="userSpaceOnUse" x="0" y="3" width="24" height="18">
<path d="M0 5C0 3.89543 0.895431 3 2 3H22C23.1046 3 24 3.89543 24 5V19C24 20.1046 23.1046 21 22 21H2C0.89543 21 0 20.1046 0 19V5Z" fill="white"/>
</mask>
<g mask="url(#mask0_51_3933)">
<path fill-rule="evenodd" clip-rule="evenodd" d="M0 5C0 3.89543 0.895431 3 2 3H22C23.1046 3 24 3.89543 24 5V10H2C0.89543 10 0 9.10457 0 8V5Z" fill="#E70A2D"/>
<path fill-rule="evenodd" clip-rule="evenodd" d="M0 3L9 12.5151L0 22V3Z" fill="#161513"/>
<path d="M1 4H2V5H1V4Z" fill="#467146"/>
<path d="M0 3H1V4H0V3Z" fill="#467146"/>
<path d="M10 11H24V14H10V11Z" fill="#467146"/>
<path d="M2 6H3V7H2V6Z" fill="#467146"/>
<path d="M1 5H2V6H1V5Z" fill="#467146"/>
<path d="M0 4H1V5H0V4Z" fill="#467146"/>
<path d="M3 7H4V8H3V7Z" fill="#467146"/>
<path d="M9 11H10V14H9V11Z" fill="#467146"/>
<path d="M7 11H8V12H7V11Z" fill="#467146"/>
<path d="M8 11.1089H9V12.1089H8V11.1089Z" fill="#161513"/>
<path d="M7 10H8V11H7V10Z" fill="#467146"/>
<path d="M8 10H9V11H8V10Z" fill="#467146"/>
<path d="M7 9H8V10H7V9Z" fill="#467146"/>
<path d="M6 8H7V9H6V8Z" fill="#467146"/>
<path d="M5 7H6V8H5V7Z" fill="#467146"/>
<path d="M4 6H5V7H4V6Z" fill="#467146"/>
<path d="M3 5H4V6H3V5Z" fill="#467146"/>
<path d="M1 3H2V4H1V3Z" fill="#467146"/>
<path d="M2 4H3V5H2V4Z" fill="#467146"/>
<path d="M7 14H8V15H7V14Z" fill="#467146"/>
<path d="M8 14H9V15H8V14Z" fill="#467146"/>
<path d="M7 15H8V16H7V15Z" fill="#467146"/>
<path d="M6 16H7V17H6V16Z" fill="#467146"/>
<path d="M5 17H6V18H5V17Z" fill="#467146"/>
<path d="M4 18H5V19H4V18Z" fill="#467146"/>
<path d="M3 19H4V20H3V19Z" fill="#467146"/>
<path d="M2 20H3V21H2V20Z" fill="#467146"/>
<path d="M3 20H4V21H3V20Z" fill="white"/>
<path d="M4 19H5V20H4V19Z" fill="white"/>
<path d="M5 18H6V19H5V18Z" fill="white"/>
<path d="M6 17H7V18H6V17Z" fill="white"/>
<path d="M7 16H8V17H7V16Z" fill="white"/>
<path d="M8 15H9V16H8V15Z" fill="white"/>
<path d="M9 15H10V16H9V15Z" fill="white"/>
<path d="M8 16H9V17H8V16Z" fill="white"/>
<path d="M7 17H8V18H7V17Z" fill="white"/>
<path d="M6 18H7V19H6V18Z" fill="white"/>
<path d="M5 19H6V20H5V19Z" fill="white"/>
<path d="M4 20H5V21H4V20Z" fill="white"/>
<path d="M6 13H7V14H6V13Z" fill="#FACD62"/>
<path d="M6 12H7V13H6V12Z" fill="#FACD62"/>
<path d="M5 11H6V12H5V11Z" fill="#FACD62"/>
<path d="M4 10H5V11H4V10Z" fill="#FACD62"/>
<path d="M3 9H4V10H3V9Z" fill="#FACD62"/>
<path d="M2 8H3V9H2V8Z" fill="#FACD62"/>
<path d="M1 7H2V8H1V7Z" fill="#FACD62"/>
<path d="M0 6H1V7H0V6Z" fill="#FACD62"/>
<path d="M5 14H6V15H5V14Z" fill="#FACD62"/>
<path d="M4 14H5V15H4V14Z" fill="#FACD62"/>
<path d="M3 15H4V16H3V15Z" fill="#FACD62"/>
<path d="M2 16H3V17H2V16Z" fill="#FACD62"/>
<path d="M1 17H2V18H1V17Z" fill="#FACD62"/>
<path d="M0 18H1V19H0V18Z" fill="#FACD62"/>
<path d="M5 13H6V14H5V13Z" fill="#FACD62"/>
<path d="M4 15H5V16H4V15Z" fill="#FACD62"/>
<path d="M3 16H4V17H3V16Z" fill="#FACD62"/>
<path d="M2 17H3V18H2V17Z" fill="#FACD62"/>
<path d="M1 18H2V19H1V18Z" fill="#FACD62"/>
<path d="M0 19H1V20H0V19Z" fill="#FACD62"/>
<path d="M7 12H8V13H7V12Z" fill="#FACD62"/>
<path d="M6 11H7V12H6V11Z" fill="#FACD62"/>
<path d="M5 10H6V11H5V10Z" fill="#FACD62"/>
<path d="M4 9H5V10H4V9Z" fill="#FACD62"/>
<path d="M3 8H4V9H3V8Z" fill="#FACD62"/>
<path d="M2 7H3V8H2V7Z" fill="#FACD62"/>
<path d="M1 6H2V7H1V6Z" fill="#FACD62"/>
<path d="M0 5H1V6H0V5Z" fill="#FACD62"/>
<path d="M8 9H9V10H8V9Z" fill="white"/>
<path d="M9 9H10V10H9V9Z" fill="white"/>
<path d="M8 8H9V9H8V8Z" fill="white"/>
<path d="M7 7H8V8H7V7Z" fill="white"/>
<path d="M6 6H7V7H6V6Z" fill="white"/>
<path d="M5 5H6V6H5V5Z" fill="white"/>
<path d="M4 4H5V5H4V4Z" fill="white"/>
<path d="M3 3H4V4H3V3Z" fill="white"/>
<path d="M7 8H8V9H7V8Z" fill="white"/>
<path d="M6 7H7V8H6V7Z" fill="white"/>
<path d="M5 6H6V7H5V6Z" fill="white"/>
<path d="M4 5H5V6H4V5Z" fill="white"/>
<path d="M3 4H4V5H3V4Z" fill="white"/>
<path d="M2 3H3V4H2V3Z" fill="white"/>
<path d="M6 15H7V16H6V15Z" fill="#467146"/>
<path d="M5 16H6V17H5V16Z" fill="#467146"/>
<path d="M4 17H5V18H4V17Z" fill="#467146"/>
<path d="M3 18H4V19H3V18Z" fill="#467146"/>
<path d="M2 19H3V20H2V19Z" fill="#467146"/>
<path d="M6 9H7V10H6V9Z" fill="#467146"/>
<path d="M5 8H6V9H5V8Z" fill="#467146"/>
<path d="M4 7H5V8H4V7Z" fill="#467146"/>
<path d="M3 6H4V7H3V6Z" fill="#467146"/>
<path d="M2 5H3V6H2V5Z" fill="#467146"/>
<path d="M1 20H2V21H1V20Z" fill="#467146"/>
<path d="M0 20H1V21H0V20Z" fill="#467146"/>
<path d="M7 13H8V14H7V13Z" fill="#467146"/>
<path d="M8 11H9V14H8V11Z" fill="#467146"/>
<path d="M6 14H7V15H6V14Z" fill="#467146"/>
<path d="M5 15H6V16H5V15Z" fill="#467146"/>
<path d="M4 16H5V17H4V16Z" fill="#467146"/>
<path d="M3 17H4V18H3V17Z" fill="#467146"/>
<path d="M2 18H3V19H2V18Z" fill="#467146"/>
<path d="M1 19H2V20H1V19Z" fill="#467146"/>
<path d="M6 10H7V11H6V10Z" fill="#467146"/>
<path d="M4 8H5V9H4V8Z" fill="#467146"/>
<path d="M5 9H6V10H5V9Z" fill="#467146"/>
</g>
<path opacity="0.1" fill-rule="evenodd" clip-rule="evenodd" d="M22 4H2C1.44772 4 1 4.44772 1 5V19C1 19.5523 1.44772 20 2 20H22C22.5523 20 23 19.5523 23 19V5C23 4.44771 22.5523 4 22 4ZM2 3C0.895431 3 0 3.89543 0 5V19C0 20.1046 0.89543 21 2 21H22C23.1046 21 24 20.1046 24 19V5C24 3.89543 23.1046 3 22 3H2Z" fill="#100F0E"/>
</svg>
