<svg width="24" height="24" viewBox="0 0 24 24" fill="none" xmlns="http://www.w3.org/2000/svg">
<path d="M10 12C10 12.7098 10.3699 13.3197 10.9297 13.6797L8.55957 17.3896C6.77983 16.2496 5.59961 14.2598 5.59961 12H10Z" fill="#D7790F"/>
<path d="M18.4004 12C18.4004 14.2598 17.2202 16.2496 15.4404 17.3896L13.0703 13.6797C13.6301 13.3296 14 12.7098 14 12H18.4004Z" fill="#D7790F"/>
<path d="M12 11C12.2 11 12.3703 11.0699 12.5303 11.1699H12.5195C12.7995 11.3499 12.9902 11.64 12.9902 12C12.9902 12.36 12.7995 12.6501 12.5195 12.8301L12.5 12.79C12.36 12.88 12.19 12.9502 12 12.9502C11.81 12.9502 11.65 12.89 11.5 12.79C11.24 12.62 11.0498 12.34 11.0498 12H11C11 11.6401 11.1898 11.3499 11.4697 11.1699C11.6297 11.0699 11.8 11 12 11Z" fill="#D7790F"/>
<path d="M12 5.59961C13.27 5.59961 14.4504 5.97035 15.4404 6.61035L13.0703 10.3203C12.7603 10.1203 12.39 10 12 10C11.61 10 11.2397 10.1203 10.9297 10.3203L8.55957 6.61035C9.54957 5.97035 10.73 5.59961 12 5.59961Z" fill="#D7790F"/>
<path d="M12.0098 2C12.4498 2 12.8901 2.03961 13.3301 2.09961C13.4301 2.11961 13.5299 2.1304 13.6299 2.15039C14.0299 2.21039 14.4303 2.30016 14.8203 2.41016C14.8401 2.42 14.8502 2.41992 14.8701 2.41992C15.31 2.5499 15.7297 2.71043 16.1396 2.90039C16.1596 2.92038 16.19 2.93043 16.21 2.94043C16.6099 3.1304 17.0099 3.34012 17.3799 3.58008H17.3604C20.1302 5.36011 21.9805 8.46012 21.9805 12C21.9805 12.4 21.9504 12.8004 21.9004 13.1904C21.8904 13.3003 21.8696 13.4204 21.8496 13.5303C21.8096 13.8202 21.7604 14.1002 21.6904 14.3701C21.6604 14.4901 21.6296 14.6 21.5996 14.71C21.5096 15.0199 21.41 15.3201 21.29 15.6201C21.2701 15.68 21.2504 15.7401 21.2305 15.79C21.0805 16.16 20.9 16.5104 20.71 16.8604C20.6999 16.8802 20.6797 16.8903 20.6797 16.9102C20.4998 17.24 20.2999 17.5498 20.0801 17.8496C20.0401 17.8996 20.0097 17.9402 19.9697 17.9902C19.7499 18.27 19.5201 18.5498 19.2803 18.8096C19.2603 18.8396 19.2397 18.8599 19.2197 18.8799C18.9598 19.1498 18.6903 19.4104 18.4004 19.6504C18.3205 19.7103 18.2303 19.7799 18.1504 19.8398C17.9405 20.0098 17.7104 20.1801 17.4805 20.3301C17.4305 20.3501 17.3496 20.4102 17.3496 20.4102C15.7998 21.4099 13.9601 21.9999 11.9805 22C10.0006 22 8.16031 21.4098 6.61035 20.4199C6.56049 20.39 6.52036 20.36 6.48047 20.3301C6.25047 20.1801 6.02957 20.0098 5.80957 19.8398C5.72981 19.78 5.65007 19.7201 5.57031 19.6504C5.29031 19.4104 5.01 19.1499 4.75 18.8799C4.73002 18.8499 4.71041 18.8296 4.69043 18.8096C4.44048 18.5496 4.21996 18.2802 4 17.9902C3.96 17.9502 3.91965 17.8996 3.88965 17.8496C3.67978 17.5498 3.46994 17.23 3.29004 16.9102C3.2801 16.8903 3.26 16.8801 3.25977 16.8604C3.05979 16.5204 2.89022 16.16 2.74023 15.79C2.72024 15.73 2.69969 15.6801 2.67969 15.6201C2.56969 15.3201 2.46988 15.02 2.37988 14.71C2.3499 14.6 2.32002 14.4801 2.29004 14.3701C2.23004 14.1001 2.16988 13.82 2.12988 13.54C2.10991 13.4202 2.09009 13.3103 2.08008 13.1904C2.03008 12.8004 2 12.4 2 12C2 8.46005 3.84995 5.36009 6.62988 3.58008C6.99979 3.34014 7.38992 3.13039 7.7998 2.94043C7.8198 2.92043 7.84012 2.91039 7.87012 2.90039C8.28002 2.71043 8.69976 2.54991 9.13965 2.41992C9.15965 2.40992 9.17043 2.41016 9.19043 2.41016C9.58026 2.30022 9.98006 2.22036 10.3799 2.15039C10.4899 2.13039 10.5904 2.10961 10.6904 2.09961C11.1302 2.03966 11.56 2.00001 12.0098 2ZM12 4C10.4201 4 8.94012 4.46967 7.7002 5.26953C5.4802 6.68953 4 9.18 4 12C4 14.82 5.4802 17.3105 7.7002 18.7305C8.94012 19.5303 10.4201 20 12 20C13.5799 20 15.0599 19.5303 16.2998 18.7305C18.5198 17.3105 20 14.82 20 12C20 9.18 18.5198 6.68953 16.2998 5.26953C15.0599 4.46967 13.5799 4 12 4Z" fill="#D7790F"/>
</svg>
