<svg width="24" height="24" viewBox="0 0 24 24" fill="none" xmlns="http://www.w3.org/2000/svg">
<path d="M13.8105 13.7979H10.1855L9.20654 10.8609L11.9985 8.99988L14.7895 10.8609L13.8105 13.7979Z" fill="#161513"/>
<path d="M11.998 2C6.4752 2 1.99805 6.47715 1.99805 12C1.99805 17.5228 6.4752 22 11.998 22C17.5209 22 21.998 17.5228 21.998 12C21.998 6.47715 17.5209 2 11.998 2ZM8.91017 4.6177C8.93351 4.64459 8.95916 4.66979 8.98702 4.69298L11.57 6.84598C11.694 6.94798 11.846 6.99998 11.998 6.99998C12.15 6.99998 12.302 6.94798 12.426 6.84598L15.009 4.69298C15.0369 4.66979 15.0625 4.64458 15.0859 4.61768C16.1615 5.06811 17.1178 5.74674 17.8943 6.59304L16.4294 9.52287C16.2584 9.86387 16.3614 10.2779 16.6714 10.4999L19.7394 12.6909C19.8073 12.739 19.8813 12.7756 19.9586 12.8C19.8437 13.9569 19.4823 15.0414 18.9277 16.0001H15.2939C14.9699 16.0001 14.6869 16.2211 14.6079 16.5361L13.7914 19.7982C13.2149 19.9302 12.6146 20 11.998 20C11.3811 20 10.7805 19.9302 10.2036 19.798L9.38817 16.5361C9.30917 16.2211 9.02617 16.0001 8.70217 16.0001H5.06838C4.5138 15.0415 4.15245 13.9571 4.03756 12.8001C4.11454 12.7759 4.18835 12.7394 4.25605 12.6909L7.32405 10.4999C7.63505 10.2779 7.73805 9.86389 7.56705 9.52289L6.10232 6.59249C6.87871 5.74646 7.83483 5.06803 8.91017 4.6177Z" fill="#161513"/>
</svg>
